<svg width="46" height="16" fill="none" xmlns="http://www.w3.org/2000/svg"><g clip-path="url(#a)"><path d="M41.738 3.752c-1.773 0-2.947.806-3.753 2.003-.69-1.243-1.98-2.003-3.591-2.003-1.427 0-2.624.668-3.269 1.796V4.052h-2.786v11.603h2.878V8.978c0-1.542.99-2.555 2.28-2.555 1.334 0 2.186.967 2.186 2.51v6.722h2.901V8.978c0-1.542.967-2.555 2.28-2.555 1.358 0 2.186.967 2.186 2.51v6.722h2.878V8.127c0-2.579-1.911-4.375-4.19-4.375zM20.88 6.17c1.658 0 2.67.898 3.04 2.371h-6.102c.392-1.45 1.497-2.371 3.062-2.371zm5.917 3.499c0-3.522-2.486-5.94-5.94-5.94-3.453 0-5.962 2.74-5.962 6.124 0 3.407 2.578 6.147 6.17 6.147 2.394 0 4.282-1.105 5.317-2.74l-2.256-1.427c-.575.944-1.634 1.612-3.038 1.612-1.681 0-2.993-1.06-3.338-2.74h8.955c.046-.184.092-.645.092-1.036zM10.245 0v6.239H3.108V0H0v15.655h3.108v-6.63h7.137v6.63h3.108V0h-3.108z" fill="#000"/></g><defs><clipPath id="a"><path fill="#fff" d="M0 0h45.928v16H0z"/></clipPath></defs></svg>